<?xml version="1.0" standalone="no"?>
<!DOCTYPE svg PUBLIC "-//W3C//DTD SVG 20010904//EN"
 "http://www.w3.org/TR/2001/REC-SVG-20010904/DTD/svg10.dtd">
<svg version="1.0" xmlns="http://www.w3.org/2000/svg"
 width="1666.000000pt" height="1666.000000pt" viewBox="0 0 1666.000000 1666.000000"
 preserveAspectRatio="xMidYMid meet">
<metadata>
Created by potrace 1.11, written by Peter Selinger 2001-2013
</metadata>
<g transform="translate(0.000000,1666.000000) scale(0.100000,-0.100000)"
fill="#000000" stroke="none">
<path d="M6220 13135 c-1147 -1147 -2089 -2085 -2093 -2085 -5 0 -924 916
-2043 2035 -1119 1119 -2035 2035 -2037 2035 -1 0 -2 -259 -2 -575 l0 -575
2041 -2041 2040 -2040 2090 2090 2089 2090 2090 -2090 2091 -2090 2059 2060
2060 2060 0 576 1 576 -2056 -2056 c-1130 -1130 -2059 -2055 -2063 -2055 -4 0
-938 930 -2076 2068 -1137 1137 -2077 2075 -2087 2084 -19 17 -84 -47 -2104
-2067z"/>
<path d="M6216 10783 l-2087 -2086 -45 44 c-25 24 -941 940 -2037 2036 -1095
1095 -1994 1989 -1997 1987 -2 -3 -5 -260 -5 -572 l-1 -567 2041 -2042 2040
-2041 2091 2090 2090 2089 2090 -2090 2091 -2089 2059 2059 2059 2059 0 575
c0 316 0 575 -2 575 -1 0 -927 -925 -2057 -2055 -1130 -1130 -2056 -2055
-2058 -2055 -3 0 -943 938 -2090 2085 -1146 1147 -2087 2085 -2090 2085 -3 0
-945 -939 -2092 -2087z"/>
<path d="M6213 8434 l-2086 -2086 -2036 2036 c-1120 1120 -2038 2036 -2041
2036 -3 0 -5 -257 -5 -572 l0 -571 2038 -2039 c1121 -1121 2042 -2038 2045
-2038 4 0 915 908 2024 2018 1109 1109 2048 2048 2087 2086 l70 69 2086 -2086
c1147 -1148 2089 -2087 2092 -2087 4 0 932 925 2062 2056 l2056 2056 0 574 c0
316 -1 574 -3 574 -3 0 -929 -925 -2060 -2056 l-2055 -2056 -2086 2086 c-1147
1147 -2089 2086 -2093 2086 -5 0 -947 -939 -2095 -2086z"/>
<path d="M6683 6385 c-887 -887 -1613 -1616 -1613 -1620 0 -10 3225 -3235
3235 -3235 3 0 735 728 1625 1617 l1618 1617 -1617 1618 c-890 890 -1622 1618
-1627 1618 -5 -1 -735 -727 -1621 -1615z m2610 -2607 l-988 -988 -987 987
-988 988 987 987 988 988 987 -987 988 -988 -987 -987z"/>
<path d="M7801 5278 c-276 -277 -502 -507 -502 -513 0 -5 226 -236 503 -512
l502 -503 29 28 c15 15 244 243 508 506 l480 479 -28 29 c-33 35 -894 896
-950 951 l-39 37 -503 -502z"/>
<path d="M14983 6384 c-887 -887 -1613 -1616 -1613 -1619 0 -7 3226 -3235
3233 -3235 1 0 3 283 3 630 l-1 630 -988 988 -987 987 988 988 988 988 -1 624
c0 343 -2 625 -5 627 -3 3 -731 -721 -1617 -1608z"/>
<path d="M49 7883 c-1 -5 -2 -287 -3 -628 l-3 -620 934 -935 933 -935 -933
-935 -934 -935 3 -625 c1 -344 2 -626 3 -628 2 -5 3121 3116 3121 3123 0 9
-3120 3126 -3121 3118z"/>
<path d="M16100 5275 c-278 -278 -506 -507 -507 -509 -2 -2 990 -997 1010
-1013 2 -1 3 454 3 1012 0 558 -1 1015 -1 1015 0 0 -228 -227 -505 -505z"/>
<path d="M45 4774 c0 -492 4 -895 8 -897 4 -1 208 198 453 442 l444 445 -27
29 c-23 23 -869 868 -876 874 -1 1 -2 -401 -2 -893z"/>
<path d="M3569 3775 c-305 -306 -555 -557 -556 -558 -1 -2 249 -254 557 -561
l558 -559 560 560 560 560 -556 556 c-307 307 -560 557 -563 557 -3 0 -255
-250 -560 -555z"/>
<path d="M11925 3773 l-556 -557 559 -559 559 -559 556 557 c306 306 557 560
557 563 0 8 -1082 1091 -1101 1102 -14 8 -120 -94 -574 -547z"/>
</g>
</svg>
