<svg clip-rule="evenodd" fill-rule="evenodd" stroke-linejoin="round" stroke-miterlimit="2" viewBox="0 0 1666 1386" xmlns="http://www.w3.org/2000/svg"><g transform="matrix(3.95572399791 0 0 3.90727395915 -740.15892546 -504.09206994)"><path d="m187.111 129.014h421.107v354.527h-421.107z" fill="none"/><path d="m0 0 11.378-11.377 11.377 11.377-11.377 11.377zm11.378-18.671-18.673 18.671 18.673 18.671 18.671-18.671z" fill="#cd5931" fill-rule="nonzero" transform="matrix(4.38886 0 0 4.44328 347.13 397.627)"/><path d="m-4.146-10.008h8.29v8.292h-8.29z" fill="#fff" transform="matrix(-3.10366 3.14161 3.10313 3.14214 415.254 416.05)"/><g fill-rule="nonzero"><path d="m0 37.342v-7.294l-11.377-11.377 11.377-11.377v-7.294l-18.673 18.671z" fill="#cd5931" transform="matrix(4.38886 0 0 4.44328 606.902 314.668)"/><path d="m0 11.725v-11.725l-5.862 5.862z" fill="#fff" transform="matrix(4.38886 0 0 4.44328 606.902 371.58)"/><path d="m0-.001-10.738 10.738v7.294l18.032-18.032-18.032-18.031v7.294z" fill="#cd5931" transform="matrix(4.38886 0 0 4.44328 235.383 397.631)"/><path d="m0-10.447v10.447l5.223-5.224z" fill="#fff" transform="matrix(4.38886 0 0 4.44328 188.256 420.838)"/></g><path d="m1.887-4.556h9.114v9.112h-9.114z" fill="#fff" transform="matrix(3.10363 3.14163 3.10315 -3.14212 482.781 417.003)"/><path d="m1.887-4.556h9.114v9.112h-9.114z" fill="#fff" transform="matrix(3.10363 3.14163 3.10315 -3.14212 271.486 417.003)"/><path d="m0 30.72 24.076-24.074 24.075 24.074 23.725-23.725v-6.647l-23.725 23.726-24.075-24.074-24.076 24.073-23.512-23.512v6.647z" fill="#ded046" fill-rule="nonzero" transform="matrix(4.38886 0 0 4.44328 291.446 250.14)"/><path d="m0 30.72 24.076-24.074 24.075 24.074 23.725-23.725v-6.646l-23.725 23.725-24.075-24.074-24.076 24.074-23.512-23.511v6.646z" fill="#74aa51" fill-rule="nonzero" transform="matrix(4.38886 0 0 4.44328 291.446 190.061)"/><path d="m0 30.721 24.076-24.075 24.075 24.074 23.725-23.724v-6.647l-23.725 23.725-24.075-24.074-24.076 24.074-23.512-23.512v6.647z" fill="#963e79" fill-rule="nonzero" transform="matrix(4.38886 0 0 4.44328 291.446 129.983)"/></g></svg>